<?xml version="1.0" encoding="utf-8"?>
<!-- Generator: Adobe Illustrator 22.1.0, SVG Export Plug-In . SVG Version: 6.00 Build 0)  -->
<svg version="1.1" id="Layer_1" xmlns="http://www.w3.org/2000/svg" xmlns:xlink="http://www.w3.org/1999/xlink" x="0px" y="0px"
	 viewBox="0 0 1050 200" style="enable-background:new 0 0 1050 200;" xml:space="preserve">
<style type="text/css">
	.st0{fill:url(#SVGID_1_);}
	.st1{fill:#22B573;}
</style>
<linearGradient id="SVGID_1_" gradientUnits="userSpaceOnUse" x1="524.3903" y1="-1164.0082" x2="526.7712" y2="-979.4731" gradientTransform="matrix(1 0 0 -1 0 -978)">
	<stop  offset="8.378378e-02" style="stop-color:#22B573"/>
	<stop  offset="0.9216" style="stop-color:#21D637"/>
</linearGradient>
<rect class="st0" width="1051" height="200"/>
<path id="XMLID_15_" class="st1" d="M403,34.3c-10.1,18.8-33.1,59.1-33.1,59.1l12.6-4.4l-24.4,53.1l13.4-4.4l-18.2,40.5h43.5v21.1
	h9.9v-21.1h46l-18.2-40.5l13.4,4.4L423.5,89l12.6,4.4C436.2,93.4,413.1,53.1,403,34.3z"/>
<path id="XMLID_1_" class="st1" d="M497.5,13.3c-10.1,18.8-33.1,59.1-33.1,59.1L477,68l-24.4,53.1l13.4-4.4l-18.2,40.5h43.5v21.1
	h9.9v-21.1h46L529,116.7l13.4,4.4L518,68l12.6,4.4C530.7,72.4,507.6,32.1,497.5,13.3z"/>
<path id="XMLID_2_" class="st1" d="M596,34.3c-10.1,18.8-33.1,59.1-33.1,59.1l12.6-4.4l-24.4,53.1l13.4-4.4l-18.2,40.5h43.5v21.1
	h9.9v-21.1h46l-18.2-40.5l13.4,4.4L616.5,89l12.6,4.4C629.2,93.4,606.1,53.1,596,34.3z"/>
<path id="XMLID_3_" class="st1" d="M311,15.3c-10.1,18.8-33.1,59.1-33.1,59.1l12.6-4.4l-24.4,53.1l13.4-4.4l-18.2,40.5h43.5v21.1
	h9.9v-21.1h46l-18.2-40.5l13.4,4.4L331.5,70l12.6,4.4C344.2,74.4,321.1,34.1,311,15.3z"/>
<path id="XMLID_4_" class="st1" d="M693.7,14.3c-10.1,18.8-33.1,59.1-33.1,59.1l12.6-4.4l-24.4,53.1l13.4-4.4L644,158.2h43.5v21.1
	h9.9v-21.1h46l-18.2-40.5l13.4,4.4L714.2,69l12.6,4.4C726.9,73.4,703.8,33.1,693.7,14.3z"/>
<path id="XMLID_5_" class="st1" d="M796,34.3c-10.1,18.8-33.1,59.1-33.1,59.1l12.6-4.4l-24.4,53.1l13.4-4.4l-18.2,40.5h43.5v21.1
	h9.9v-21.1h46l-18.2-40.5l13.4,4.4L816.5,89l12.6,4.4C829.2,93.4,806.1,53.1,796,34.3z"/>
<path id="XMLID_6_" class="st1" d="M902,16.3c-10.1,18.8-33.1,59.1-33.1,59.1l12.6-4.4l-24.4,53.1l13.4-4.4l-18.2,40.5h43.5v21.1
	h9.9v-21.1h46l-18.2-40.5l13.4,4.4L922.5,71l12.6,4.4C935.2,75.4,912.1,35.1,902,16.3z"/>
<path id="XMLID_7_" class="st1" d="M215,35.3c-10.1,18.8-33.1,59.1-33.1,59.1l12.6-4.4l-24.4,53.1l13.4-4.4l-18.2,40.5h43.5v21.1
	h9.9v-21.1h46l-18.2-40.5l13.4,4.4L235.5,90l12.6,4.4C248.2,94.4,225.1,54.1,215,35.3z"/>
<path id="XMLID_9_" class="st1" d="M117,15.3c-10.1,18.8-33.1,59.1-33.1,59.1L96.5,70l-24.4,53.1l13.4-4.4l-18.2,40.5h43.5v21.1h9.9
	v-21.1h46l-18.2-40.5l13.4,4.4L137.5,70l12.6,4.4C150.2,74.4,127.1,34.1,117,15.3z"/>
<path id="XMLID_8_" class="st1" d="M996,34.3c-10.1,18.8-33.1,59.1-33.1,59.1l12.6-4.4l-24.4,53.1l13.4-4.4l-18.2,40.5h43.5v21.1
	h9.9v-21.1h46l-18.2-40.5l13.4,4.4L1016.5,89l12.6,4.4C1029.2,93.4,1006.1,53.1,996,34.3z"/>
</svg>
